HIERARCHY
ROOT hips
{
  OFFSET 0 10.432787522119774 1.3615615910897314
  CHANNELS 6 Xposition Yposition Zposition Yrotation Xrotation Zrotation
  JOINT spine
  {
    OFFSET -7.042016674e-31 0.605849736412771 0
    CHANNELS 3 Yrotation Xrotation Zrotation
    JOINT chest
    {
      OFFSET 0 1.2699780403367527 0
      CHANNELS 3 Yrotation Xrotation Zrotation
      JOINT upperChest
      {
        OFFSET 0 1.217802795781373 0
        CHANNELS 3 Yrotation Xrotation Zrotation
        JOINT neck
        {
          OFFSET 0 1.524881793055447 0
          CHANNELS 3 Yrotation Xrotation Zrotation
          JOINT head
          {
            OFFSET 0 0.8197776686196176 0
            CHANNELS 3 Yrotation Xrotation Zrotation
            JOINT leftEye
            {
              OFFSET 0.27991711184325396 0.7377279215890094 0.1770057770610815
              CHANNELS 3 Yrotation Xrotation Zrotation
              End Site
              {
                OFFSET 0.27991711184325396 0.7377279215890094 0.1770057770610815
              }
            }
            JOINT rightEye
            {
              OFFSET -0.27991715118228666 0.7377278742074458 0.1770060973723161
              CHANNELS 3 Yrotation Xrotation Zrotation
              End Site
              {
                OFFSET -0.27991715118228666 0.7377278742074458 0.1770060973723161
              }
            }
          }
        }
        JOINT leftShoulder
        {
          OFFSET 0.4148696499235711 1.1670497283493415 0
          CHANNELS 3 Yrotation Xrotation Zrotation
          JOINT leftUpperArm
          {
            OFFSET 0.9737923520503171 0 0
            CHANNELS 3 Yrotation Xrotation Zrotation
            JOINT leftLowerArm
            {
              OFFSET 2.526933563002016 0 0
              CHANNELS 3 Yrotation Xrotation Zrotation
              JOINT leftHand
              {
                OFFSET 2.4263767061081287 0 0
                CHANNELS 3 Yrotation Xrotation Zrotation
                JOINT leftIndexProximal
                {
                  OFFSET 0.7243194303238094 0.08170604153373495 0.2036005707489045
                  CHANNELS 3 Yrotation Xrotation Zrotation
                  JOINT leftIndexIntermediate
                  {
                    OFFSET 0.365490110639793 -0.010566615565509085 -0.014147873305413783
                    CHANNELS 3 Yrotation Xrotation Zrotation
                    JOINT leftIndexDistal
                    {
                      OFFSET 0.22502693978020916 -0.007863122621388996 -0.007567729919505994
                      CHANNELS 3 Yrotation Xrotation Zrotation
                      End Site
                      {
                        OFFSET 0.22502693978020916 -0.007863122621388996 -0.007567729919505994
                      }
                    }
                  }
                }
                JOINT leftLittleProximal
                {
                  OFFSET 0.6720313867214986 0.0817059792423902 -0.3230034999786495
                  CHANNELS 3 Yrotation Xrotation Zrotation
                  JOINT leftLittleIntermediate
                  {
                    OFFSET 0.3458364459000005 5.4765410650858826e-8 2.495506794542024e-7
                    CHANNELS 3 Yrotation Xrotation Zrotation
                    JOINT leftLittleDistal
                    {
                      OFFSET 0.19925722030351722 0.003096736260194355 0.0038306323169590983
                      CHANNELS 3 Yrotation Xrotation Zrotation
                      End Site
                      {
                        OFFSET 0.19925722030351722 0.003096736260194355 0.0038306323169590983
                      }
                    }
                  }
                }
                JOINT leftMiddleProximal
                {
                  OFFSET 0.7300446999180792 0.08170730820222194 0.0226618663244387
                  CHANNELS 3 Yrotation Xrotation Zrotation
                  JOINT leftMiddleIntermediate
                  {
                    OFFSET 0.40758107610000327 -0.0000012383582372876845 3.721937498757377e-7
                    CHANNELS 3 Yrotation Xrotation Zrotation
                    JOINT leftMiddleDistal
                    {
                      OFFSET 0.2514495697999991 7.561061998728746e-8 -1.6055895105115958e-7
                      CHANNELS 3 Yrotation Xrotation Zrotation
                      End Site
                      {
                        OFFSET 0.2514495697999991 7.561061998728746e-8 -1.6055895105115958e-7
                      }
                    }
                  }
                }
                JOINT leftRingProximal
                {
                  OFFSET 0.7217264995692599 0.08170598771388815 -0.1504338786787948
                  CHANNELS 3 Yrotation Xrotation Zrotation
                  JOINT leftRingIntermediate
                  {
                    OFFSET 0.3780872700000014 6.409956210262635e-8 3.723059401883333e-7
                    CHANNELS 3 Yrotation Xrotation Zrotation
                    JOINT leftRingDistal
                    {
                      OFFSET 0.21812031524459563 -0.00271347557699686 -0.004991351593452126
                      CHANNELS 3 Yrotation Xrotation Zrotation
                      End Site
                      {
                        OFFSET 0.21812031524459563 -0.00271347557699686 -0.004991351593452126
                      }
                    }
                  }
                }
                JOINT leftThumbProximal
                {
                  OFFSET 0.10793670302222891 -0.165278914300383 -0.07775358168875651
                  CHANNELS 3 Yrotation Xrotation Zrotation
                  JOINT leftThumbIntermediate
                  {
                    OFFSET 0.40355763830204994 -0.017484092948475194 0.31777731504028983
                    CHANNELS 3 Yrotation Xrotation Zrotation
                    JOINT leftThumbDistal
                    {
                      OFFSET 0.2318770514136803 -0.018507879151339335 0.21396002480314588
                      CHANNELS 3 Yrotation Xrotation Zrotation
                      End Site
                      {
                        OFFSET 0.2318770514136803 -0.018507879151339335 0.21396002480314588
                      }
                    }
                  }
                }
              }
            }
          }
        }
        JOINT rightShoulder
        {
          OFFSET -0.4148696499235712 1.1670497283493415 0
          CHANNELS 3 Yrotation Xrotation Zrotation
          JOINT rightUpperArm
          {
            OFFSET -0.9737923520503168 0 0
            CHANNELS 3 Yrotation Xrotation Zrotation
            JOINT rightLowerArm
            {
              OFFSET -2.5269335630020175 0 0
              CHANNELS 3 Yrotation Xrotation Zrotation
              JOINT rightHand
              {
                OFFSET -2.4263767061081274 0 0
                CHANNELS 3 Yrotation Xrotation Zrotation
                JOINT rightIndexProximal
                {
                  OFFSET -0.7243194303238094 0.08170604153373495 0.2036005707489045
                  CHANNELS 3 Yrotation Xrotation Zrotation
                  JOINT rightIndexIntermediate
                  {
                    OFFSET -0.365490110639793 -0.010566615565509085 -0.014147873305413783
                    CHANNELS 3 Yrotation Xrotation Zrotation
                    JOINT rightIndexDistal
                    {
                      OFFSET -0.22502693978020916 -0.007863122621388996 -0.007567729919505994
                      CHANNELS 3 Yrotation Xrotation Zrotation
                      End Site
                      {
                        OFFSET -0.22502693978020916 -0.007863122621388996 -0.007567729919505994
                      }
                    }
                  }
                }
                JOINT rightLittleProximal
                {
                  OFFSET -0.6720313867214986 0.0817059792423902 -0.3230034999786495
                  CHANNELS 3 Yrotation Xrotation Zrotation
                  JOINT rightLittleIntermediate
                  {
                    OFFSET -0.3458364459000005 5.4765410650858826e-8 2.495506794542024e-7
                    CHANNELS 3 Yrotation Xrotation Zrotation
                    JOINT rightLittleDistal
                    {
                      OFFSET -0.19925722030351722 0.003096736260194355 0.0038306323169590983
                      CHANNELS 3 Yrotation Xrotation Zrotation
                      End Site
                      {
                        OFFSET -0.19925722030351722 0.003096736260194355 0.0038306323169590983
                      }
                    }
                  }
                }
                JOINT rightMiddleProximal
                {
                  OFFSET -0.7300446999180792 0.08170730820222194 0.0226618663244387
                  CHANNELS 3 Yrotation Xrotation Zrotation
                  JOINT rightMiddleIntermediate
                  {
                    OFFSET -0.40758107610000327 -0.0000012383582372876845 3.721937498757377e-7
                    CHANNELS 3 Yrotation Xrotation Zrotation
                    JOINT rightMiddleDistal
                    {
                      OFFSET -0.2514495697999991 7.561061998728746e-8 -1.6055895105115958e-7
                      CHANNELS 3 Yrotation Xrotation Zrotation
                      End Site
                      {
                        OFFSET -0.2514495697999991 7.561061998728746e-8 -1.6055895105115958e-7
                      }
                    }
                  }
                }
                JOINT rightRingProximal
                {
                  OFFSET -0.7217264995692599 0.08170598771388815 -0.1504338786787948
                  CHANNELS 3 Yrotation Xrotation Zrotation
                  JOINT rightRingIntermediate
                  {
                    OFFSET -0.3780872700000014 6.409956210262635e-8 3.723059401883333e-7
                    CHANNELS 3 Yrotation Xrotation Zrotation
                    JOINT rightRingDistal
                    {
                      OFFSET -0.21812031524459563 -0.00271347557699686 -0.004991351593452126
                      CHANNELS 3 Yrotation Xrotation Zrotation
                      End Site
                      {
                        OFFSET -0.21812031524459563 -0.00271347557699686 -0.004991351593452126
                      }
                    }
                  }
                }
                JOINT rightThumbProximal
                {
                  OFFSET -0.10793670302222891 -0.165278914300383 -0.07775358168875651
                  CHANNELS 3 Yrotation Xrotation Zrotation
                  JOINT rightThumbIntermediate
                  {
                    OFFSET -0.40355763830204994 -0.017484092948475194 0.31777731504028983
                    CHANNELS 3 Yrotation Xrotation Zrotation
                    JOINT rightThumbDistal
                    {
                      OFFSET -0.2318770514136803 -0.018507879151339335 0.21396002480314588
                      CHANNELS 3 Yrotation Xrotation Zrotation
                      End Site
                      {
                        OFFSET -0.2318770514136803 -0.018507879151339335 0.21396002480314588
                      }
                    }
                  }
                }
              }
            }
          }
        }
      }
    }
  }
  JOINT leftUpperLeg
  {
    OFFSET 0.8486251400000001 -0.44215692923454897 0
    CHANNELS 3 Yrotation Xrotation Zrotation
    JOINT leftLowerLeg
    {
      OFFSET 0 -4.1014783730019015 0
      CHANNELS 3 Yrotation Xrotation Zrotation
      JOINT leftFoot
      {
        OFFSET -0.0002543926242001143 -4.7729227580453255 0.007402839656626761
        CHANNELS 3 Yrotation Xrotation Zrotation
        JOINT leftToes
        {
          OFFSET 0 -0.7027876860119923 1.2062921852216233
          CHANNELS 3 Yrotation Xrotation Zrotation
          End Site
          {
            OFFSET 0 -0.7027876860119923 1.2062921852216233
          }
        }
      }
    }
  }
  JOINT rightUpperLeg
  {
    OFFSET -0.8486251400000001 -0.44215692923454897 0
    CHANNELS 3 Yrotation Xrotation Zrotation
    JOINT rightLowerLeg
    {
      OFFSET 0 -4.1014783730019015 0
      CHANNELS 3 Yrotation Xrotation Zrotation
      JOINT rightFoot
      {
        OFFSET 0.0002543926242001143 -4.7729227580453255 0.007402839656626761
        CHANNELS 3 Yrotation Xrotation Zrotation
        JOINT rightToes
        {
          OFFSET 0 -0.7027876860119923 1.2062921852216233
          CHANNELS 3 Yrotation Xrotation Zrotation
          End Site
          {
            OFFSET 0 -0.7027876860119923 1.2062921852216233
          }
        }
      }
    }
  }
}
MOTION
Frames: 4
Frame Time: 0.03333333333333333
-0.12569838762283325 -0.3284755790655751 0.10471822321414948 -8.652982280720048 -3.91828778395793 -2.363949397374495 -0.4992663659698085 -1.3795847735768698 3.5272283178235484 -1.7048235667773401 -1.8270486246540558 8.433824262989841 0 0 0 -0.30881991137075426 3.0648702136166563 -2.6413442336867856 -0.5944738036513881 14.285335763568638 -9.282579025461462 0 0 0 0 0 0 7.327180262251803 0.30565652392965836 -5.526501498689794 -10.402901630286236 12.18236894894661 -73.75949876398211 -24.626648300449876 -2.0623133377215415 0.7730970742364525 -0.1745109899218783 -3.216003634172074 -7.453727277101248 0.05039841919114883 -0.11237241199955995 -7.3907555202304085 2.685624963493224 0.6155519576409682 -25.815582384793128 1.7265936857279782 0.24668529032739248 -16.262007075369205 3.4758664120744505 0.5128550172690466 -14.959729907502972 -2.0029749757814206 0.3546604244795802 -19.97871017477621 4.1708263194791115 1.623672701725784 -42.52817978085987 1.2204178877360397 0.12103599133338443 -11.51101610543145 2.9576449238908227 0.7555768385889833 -28.655964647641166 2.3471418851437194 0.46418446696967913 -22.372450325642333 1.030041831165256 0.025925651406129072 -13.888802452114557 3.2604400274360508 0.9323642114109684 -31.910447500656282 2.4996678459626613 0.529378035059446 -23.91266124777762 12.807950700215944 2.3334566343171894 9.419524502079923 20.415874178545618 0.5386054344154488 9.690989524353006 19.121725606777197 3.9830462952279015 4.028003899169669 -1.8827553544835094 0.5753848601585793 9.269286048641721 2.1990242284990495 13.495920536714635 56.80823040330142 16.825573717680697 -1.4480515871184394 -0.4330501883618971 -5.597898260706546 -11.599830161751356 2.960017550155454 -1.0673378843779984 0.09567006393345848 9.48467140548147 -1.4158352314056737 0.16293356849900345 13.129106259082663 -1.1624400164304969 0.10935304918733929 10.74853737149236 -0.712688004638388 -0.007042086802098425 10.138177422058668 -2.5443228403581557 0.5428850586920462 24.085356024403513 0.29975575218382783 0.007210863012280742 -2.7567064580489284 -1.2159055587089829 0.11945555945214305 11.279266327307791 -2.530452264896897 0.536688628188887 23.945925198292425 0.7630830234204127 0.052161334803425906 -7.034088792818786 -1.2348057137211423 0.11300363208946687 12.38302895460672 -2.600958161282213 0.5685309574336658 24.656423200002365 0.06726528095970878 0.005559059041059801 -0.6146070871192055 -11.285041560871214 -4.080227668631618 -4.436203140737975 -14.624368186496739 9.0094713237527 -17.8527048855496 -15.514691863820985 -4.808459876421433 -3.180069627685591 15.130932423056601 -17.764744689027143 10.019414192906279 -1.1462630068665391 13.818918018000751 3.121150395144369 0.029595248322113694 5.3800564563808875 -9.684086644569456 0.0000024293245374248367 2.31641088578389 -0.000004440645420678021 -10.217248121118276 -1.8621631081224086 4.804918981577954 -3.3919516383969923 22.247776368388017 0.1969991668486295 0.42381233404315083 -16.22308336018199 -3.5451829480925414 -0.000004773490823138503 -0.18732718298803283 -7.921534528519428e-7
-0.1266857236623764 -0.3294464195196767 0.10412002354860306 -8.604423118543544 -3.942284887652101 -2.472284410811576 -0.5149239115459068 -1.3438773453370263 3.603831891957499 -1.7668484194336562 -1.7772457845040865 8.627219430440382 0 0 0 -0.3274865752366572 3.1459936830530117 -2.747722827289762 -0.7942983906389594 13.512372541781268 -9.279373431455527 0 0 0 0 0 0 7.252093585362185 0.33311689929945437 -5.781063061163238 -10.23260348014226 11.91383630197862 -73.63360505584673 -23.982652298313734 -2.0134358984211986 0.7419149201493883 -0.6121426927736564 -2.9310281032575065 -7.407082968784518 0.05039841919114883 -0.11237241199955995 -7.3907555202304085 2.685624963493224 0.6155519576409682 -25.815582384793128 1.7265936857279782 0.24668529032739248 -16.262007075369205 3.4892164496285094 0.5210320470233731 -15.093458762993672 -1.9778040159712753 0.3638787197304427 -20.227654259728308 4.19055233924475 1.6418331170927098 -42.77678581328783 1.2204178877360397 0.12103599133338443 -11.51101610543145 2.9576449238908227 0.7555768385889833 -28.655964647641166 2.3471418851437194 0.46418446696967913 -22.372450325642333 1.0350753967086435 0.026770625603585858 -13.935669250903924 3.280136305739253 0.9446722626556797 -32.12599867547414 2.5208766311346014 0.5388172863655302 -24.128355365667378 12.807950700215944 2.3334566343171894 9.419524502079923 20.415874178545618 0.5386054344154488 9.690989524353006 19.121725606777197 3.9830462952279015 4.028003899169669 -1.6586887594731656 0.5824308801101151 9.431879460476125 1.9360816447800884 13.200851963857394 56.428606022889774 16.318849864745637 -1.4065844877564078 -0.41389119573584365 -5.28694563597274 -11.722081450111983 2.813404150519439 -1.0414635388681512 0.08926942796019798 9.451908922427554 -1.4377573495092193 0.16809279742924868 13.335993331654477 -1.1614772365708683 0.10917251575353001 10.73950177630811 -0.7678299697589382 0.0012078605288411213 10.545118351641351 -2.5729934122491724 0.5557911342651932 24.374139019030434 0.11167639925706897 0.0010056891805319012 -1.0267582220742781 -1.210635171621919 0.11839598405400258 11.23157645521498 -2.553550521541785 0.5470186306849645 24.17830077109455 0.6841822597166742 0.04301072910449349 -6.303301464988493 -1.2726423522287507 0.12276540714956562 12.569164864267213 -2.643878659287242 0.5884329553524167 25.090782558550778 -0.055797195004057644 0.005504041500183081 0.5177798875548518 -11.197925818677247 -4.071777414575644 -4.484208992864412 -14.863071390578941 8.970995474377835 -17.68096079410531 -15.444512578557426 -4.511129365292463 -3.2144109835280577 15.148922770853591 -17.874661680027288 10.126595690180181 -1.273357616991247 13.970164522100667 3.0965359199503677 0.03479299227486439 5.318699588459154 -9.688986427508869 -0.000002507133428178917 2.3247576052493133 0.0000010233625900450866 -10.145873954324863 -1.8013644840448761 4.9473546182488795 -3.5338687439739096 22.199987112068833 0.12591286397497506 0.42048089112302545 -16.20520098955901 -3.5237309957187604 -0.00004438632922017894 -0.19325864802929807 5.73359345486169e-7
-0.12779118120670319 -0.330933197778954 0.10228678584098816 -8.539610823247408 -3.962421217819564 -2.5997163127141953 -0.5361675673956818 -1.3026400723987888 3.6756610636203564 -1.855798721520519 -1.724457285965122 8.833028884200639 0 0 0 -0.32173579214791753 3.276769666649475 -2.8791046411022796 -0.901673367837605 12.726081840132661 -9.262435813891964 0 0 0 0 0 0 7.105544361887197 0.3607123301397712 -6.029932972289863 -10.05462408165311 11.59006869434985 -73.55063232478061 -23.184334914460514 -1.9523500194433434 0.7039947731381597 -1.191604986288087 -2.7714414112886034 -7.315149034702233 0.05039841919114883 -0.11237241199955995 -7.3907555202304085 2.685624963493224 0.6155519576409682 -25.815582384793128 1.7265936857279782 0.24668529032739248 -16.262007075369205 3.5038967099673317 0.5300594289112955 -15.240601519930582 -1.9501543204562448 0.37413867707578874 -20.501645584329964 4.212161220550816 1.661918485072936 -43.050310808878855 1.2204178877360397 0.12103599133338443 -11.51101610543145 2.9576449238908227 0.7555768385889833 -28.655964647641166 2.3471418851437194 0.46418446696967913 -22.372450325642333 1.0406070913354133 0.027671575348062354 -13.987220752025951 3.3017615904477498 0.958306559930512 -32.36316363602855 2.544197320450472 0.5493310223564088 -24.365721118662773 12.807950700215944 2.3334566343171894 9.419524502079923 20.415874178545618 0.5386054344154488 9.690989524353006 19.121725606777197 3.9830462952279015 4.028003899169669 -1.3670371759449462 0.594305896839719 9.71121262053393 1.6796639666929334 12.858656916582078 55.95549161401625 15.689348626910164 -1.3548907712232046 -0.39055885385322275 -4.938565738905607 -11.794821998166162 2.682266565925164 -1.0136855915882357 0.08241633928855839 9.416720189804984 -1.4612403390372593 0.1737169229441111 13.557963276356709 -1.1604387746899065 0.10897610076823253 10.729763190303126 -0.8270489510141028 0.010545804634174386 10.98553131397328 -2.603956228199563 0.5699081622891671 24.686749629177797 -0.09196880559049497 0.0006824905716195054 0.8455201801250738 -1.2049542075498036 0.1172322614335245 11.180351049785784 -2.5782901767834248 0.5581997968975904 24.427631961511892 0.5986808218862351 0.034227527379844865 -5.512363725701758 -1.3131859099422198 0.13342691887729238 12.768854291431065 -2.6901323555715826 0.610320373711691 25.56082250704047 -0.18895984442752148 0.008169760882429 1.743320185600885 -11.104447537858082 -4.062531667201901 -4.535682764197184 -15.119843609159698 8.93153067531183 -17.496542189942573 -15.368351823305193 -4.189780519302537 -3.25177066230127 15.164879196782238 -18.021904201995103 10.248156085278445 -1.4307231600947772 14.150171173650804 3.0654155743077025 0.040439800122413695 5.255120080310727 -9.693423476107586 0.000015725326292191914 2.326485785866692 4.893148357967e-7 -10.064489128537515 -1.7566055975730224 5.116104362322932 -3.709589560568135 22.166047586094532 0.04407556230911442 0.4169971053093746 -16.188639548575214 -3.5019339435159593 -0.00003236629322228461 -0.1946985455358212 -0.000001289526151421402
-0.12930215895175934 -0.3327108467047353 0.10004504770040512 -8.455071626921033 -3.9519597474733614 -2.730272179605433 -0.567010291455374 -1.2846725220376431 3.7269538361380703 -1.9843402993841155 -1.7115606806157733 9.022042404669143 0 0 0 -0.2933502961662655 3.4252835719899575 -3.0104392264611164 -0.8923782830350795 11.950959694800567 -9.224856199362623 0 0 0 0 0 0 6.867399720494382 0.3875373496407839 -6.265056076620135 -9.895876450708588 11.24417215862429 -73.51049665417081 -22.29509452940287 -1.8836894907084814 0.6627849535742204 -1.8646468920701826 -2.780731125332919 -7.176288802394888 0.05039841919114883 -0.11237241199955995 -7.3907555202304085 2.685624963493224 0.6155519576409682 -25.815582384793128 1.7265936857279782 0.24668529032739248 -16.262007075369205 3.5197631867800037 0.5399230789561023 -15.40011149576524 -1.9202260965692397 0.38541393959599224 -20.798630161570603 4.235475934055925 1.6837979692150562 -43.3468015863353 1.2204178877360397 0.12103599133338443 -11.51101610543145 2.9576449238908227 0.7555768385889833 -28.655964647641166 2.3471418851437194 0.46418446696967913 -22.372450325642333 1.0466052072234555 0.028695423496568964 -14.043079280821269 3.3251425238556997 0.9732012629500514 -32.620326493449774 2.569409571963696 0.5608227679640062 -24.623015902644156 12.807950700215944 2.3334566343171894 9.419524502079923 20.415874178545618 0.5386054344154488 9.690989524353006 19.121725606777197 3.9830462952279015 4.028003899169669 -1.0132810367282334 0.6085377002185816 10.082781169455036 1.5235062528476448 12.541956270690768 55.432387507289846 14.932314067512301 -1.2923498884341302 -0.36327980311157554 -4.559553663376896 -11.738859317542891 2.5726968691502865 -0.9841881790650455 0.0751871241587041 9.379407247173791 -1.4861699649575357 0.17977039366342928 13.79369073315557 -1.1593315604807986 0.10877370935792137 10.719448737767133 -0.8899566157354177 0.02103135021089186 11.456492312499302 -2.63696943263099 0.5852125656964476 25.02086274243806 -0.30960968726882276 0.0076875747020603465 2.847346309555975 -1.1989346534299012 0.11602787780810271 11.126036442351166 -2.6045204061386187 0.5701771142987351 24.69238996505653 0.507123250003415 0.026169702294624828 -4.666686776144013 -1.3561625626650085 0.1449646365572071 12.98089599994608 -2.739412825297052 0.6341473464038863 26.063422753732166 -0.33124927690179695 0.01419223611107686 3.053655427622433 -11.005230449838962 -4.052548655780454 -4.59029635848809 -15.39313200911544 8.891797073474356 -17.300614892072396 -15.28662423332317 -3.8466017929586407 -3.2917456991336675 15.173098508659805 -18.193781248454254 10.362890588263026 -1.6102869323215825 14.298791036270508 3.0306346936490045 0.040485317400245274 5.242737101205412 -9.701904091661826 0.000008897869973386002 2.322122614523915 -0.000002837877021698591 -9.9745894511612 -1.7512942378555783 5.299774746494219 -3.919803470718497 22.141860646505762 -0.04985325380603751 0.4137958838533354 -16.175324190690315 -3.478225410980802 -0.000022795304459121442 -0.1936496385673169 0.0000028558910446773745
